<?xml version="1.0" encoding="utf-8"?>
<!-- Generator: Adobe Illustrator 25.2.0, SVG Export Plug-In . SVG Version: 6.00 Build 0)  -->
<svg version="1.1" id="圖層_1" xmlns="http://www.w3.org/2000/svg" xmlns:xlink="http://www.w3.org/1999/xlink" x="0px" y="0px"
	 viewBox="0 0 291.3 101" style="enable-background:new 0 0 291.3 101;" xml:space="preserve">
<style type="text/css">
	.st0{fill:#3E3A39;}
	.st1{fill:#FFF100;}
	.st2{fill:#575A5D;}
	.st3{fill:#A7D395;}
	.st4{fill:#2BA96B;}
	.st5{fill-rule:evenodd;clip-rule:evenodd;fill:#3E3A39;}
</style>
<g>
	<path class="st0" d="M179.1,59.5c0.3,0,0.4,0.1,0.4,0.3c0,0.1-0.1,0.2-0.3,0.4v1.2h2.2v1.2c0.4-0.8,0.7-1.5,1-2.3l1.6,0.5
		c0.1,0,0.2,0.1,0.2,0.2c0,0.2-0.2,0.3-0.5,0.4c-0.5,1.4-1.3,2.8-2.1,4.1h1.5v1.1c0.6-0.9,1.1-1.8,1.4-2.8c0.5-1.4,0.9-2.8,1.1-4.3
		l1.7,0.3c0.2,0.1,0.3,0.1,0.3,0.3s-0.2,0.3-0.5,0.4c-0.2,0.8-0.3,1.5-0.5,2.1h4.9V64h-1c-0.1,1.6-0.3,3.1-0.7,4.6
		c-0.3,1.1-0.6,2.1-1.1,3.1c-0.2,0.3-0.3,0.6-0.5,0.9c0.9,1.2,2,2.2,3.2,3.1l-1.4,1.5c-1.1-0.9-2.1-1.9-2.9-3.1
		c-0.1,0.2-0.3,0.3-0.4,0.5c-1,0.9-2,1.7-3.1,2.5l-1.4-1.5c1-0.5,1.9-1.1,2.7-1.8c0.5-0.4,0.9-0.8,1.3-1.3c-0.8-1.8-1.3-3.6-1.4-5.6
		c-0.3,0.5-0.6,1-1,1.5l-1.3-1.2l0.3-0.5h-2.5c-0.4,0.4-0.8,0.7-1.2,1h1.9l0.4-0.2c0.1,0,0.3,0.1,0.4,0.1l0.8,0.5
		c0.1,0.1,0.1,0.1,0.2,0.2c0,0.2-0.1,0.3-0.4,0.4l-2.4,2.4v0.4c1.4-0.3,2.7-0.7,4.1-1.1v1.5c-1,0.3-2.4,0.7-4.1,1.2v1.2
		c0,1.1-0.2,1.8-0.7,2.1c-0.3,0.2-1.2,0.4-2.7,0.4l-0.5-1.5c0.6,0,1.3,0,1.9-0.1c0.2-0.1,0.3-0.4,0.3-0.9V74c-1,0.3-2.1,0.5-3.3,0.8
		c-0.1,0.3-0.3,0.4-0.4,0.4s-0.2-0.1-0.2-0.3l-0.5-1.8c1.5-0.2,3-0.4,4.4-0.8v-1.6l0.6,0l1.2-1.5h-3.2c-0.7,0.4-1.4,0.7-2.1,1
		l-1.4-1.4c1.5-0.5,3-1.1,4.3-2h-3.8v-1.6h3.7v-2.4h-2.6v-1.6h2.6v-2L179.1,59.5z M181.2,62.9h-2v2.4h0.3
		C180.2,64.6,180.7,63.8,181.2,62.9z M186.2,66.7c0.1,1.5,0.4,2.9,1,4.2c0.4-0.9,0.8-1.8,1-2.8c0.3-1.3,0.6-2.7,0.7-4.1h-2.7
		c-0.1,0.2-0.2,0.4-0.2,0.6c-0.3,0.7-0.7,1.5-1.1,2.2L186.2,66.7z"/>
	<path class="st0" d="M202.7,59.5c0.3,0,0.5,0.1,0.5,0.3c0,0.1-0.1,0.3-0.4,0.4V61h7.6v1.5h-4.6c1.7,1.2,3.4,2.6,4.8,4.1l-1.5,1
		c-0.5-0.6-1.1-1.2-1.7-1.8c-2.8,0.2-7.1,0.5-12.8,0.8c-0.1,0.2-0.3,0.3-0.4,0.3c-0.1,0-0.2-0.1-0.2-0.3l-0.4-1.6
		c1.4,0,2.7-0.1,4.1-0.1l1.6-2.4h-5.9V61h7.6v-1.6L202.7,59.5z M207.8,67.2v8c0,0.8-0.6,1.5-1.3,1.6c-0.7,0.2-1.4,0.3-2.1,0.3
		l-0.7-1.7l1.7,0c0.4,0,0.7-0.2,0.7-0.6c0,0,0-0.1,0-0.1v-0.5h-8.3V77h-1.6v-9.8L207.8,67.2L207.8,67.2z M206.1,69.9v-1.3h-8.3v1.3
		L206.1,69.9z M206.1,72.7v-1.4h-8.3v1.4H206.1z M204.2,63.3l0.9-0.8h-3.5c-0.1,0.1-0.2,0.2-0.3,0.2l-1.6,2.1
		c2.1-0.1,4.2-0.2,6.2-0.3C205.3,64.1,204.8,63.7,204.2,63.3L204.2,63.3z"/>
	<path class="st0" d="M220.4,60.8v-1.4l1.9,0.2c0.2,0,0.3,0.1,0.3,0.2s-0.2,0.3-0.5,0.5v0.4h7.3v1.5h-7.3v0.9h5.9V67h-5.9v0.9h6.3
		v2.5h1.6v1.4h-1.6v3.2h-1.7v-0.7h-4.6v0.5c0.1,0.7-0.2,1.3-0.7,1.7c-0.4,0.4-1.4,0.6-3.1,0.6l-0.7-1.7h1.7c0.5,0.1,0.9-0.2,1-0.7
		c0,0,0-0.1,0-0.1v-0.3H214V73h6.4v-1.2h-7.8v-1.4h7.8v-1.2H214v-1.4h6.4V67h-5.9v-3.9h5.9v-0.9H213v-1.4L220.4,60.8z M220.4,64.4
		h-4.3v1.3h4.3V64.4z M226.3,64.4h-4.2v1.3h4.2L226.3,64.4z M222.1,70.4h4.6v-1.2h-4.6V70.4z M222.1,73h4.6v-1.2h-4.6V73z"/>
	<path class="st0" d="M239.8,59.3c0.3,0,0.4,0.1,0.4,0.2c0,0.1-0.1,0.3-0.3,0.5v2.4h1.8v-3.1l1.5,0.1c0.3,0,0.4,0.1,0.4,0.2
		c0,0.1-0.1,0.3-0.3,0.5v2.4h1.1l1.6-2.8l1.3,0.7c0.2,0.1,0.3,0.2,0.3,0.3s-0.1,0.3-0.3,0.4l-1.1,1.5h2.7v1.5H245l-0.7,1.7h3.5v1.5
		h-6.2v1.2h5.6v1.4h-5.6v1.1h7.6v1.5h-6.7c0.9,0.6,1.8,1.1,2.8,1.5c1.4,0.5,2.9,1,4.4,1.3l-1.8,1.7c-1.3-0.4-2.5-0.9-3.7-1.6
		c-1-0.5-1.9-1.2-2.7-1.9v4.2h-1.7v-4.1c-0.9,0.8-1.9,1.5-2.9,2.1c-1.2,0.6-2.5,1.1-3.8,1.5l-1.5-1.5c1.6-0.4,3.2-0.9,4.7-1.5
		c0.8-0.4,1.6-0.8,2.4-1.4h-6.5v-1.5h7.7v-1.1h-5.6v-1.4h5.6v-1.2h-6.2v-1.5h3.5l-0.5-1.7h-4.1v-1.5h3c-0.4-0.6-0.8-1.2-1.3-1.7
		l1.1-1.1c0.8,0.9,1.5,1.8,2.1,2.8h0.9v-3.1L239.8,59.3z M242.5,65.5l0.7-1.7h-4.7l0.5,1.7H242.5z"/>
	<path class="st0" d="M253.7,63.7v-4.3l1.5,0.1c0.3,0,0.4,0.1,0.4,0.2c0,0.1-0.1,0.2-0.3,0.5v3.5h1.5v1.5h-1.5v0.7
		c0.5,1.1,1.2,2.1,2,2.9l-1.1,1.2c-0.3-0.5-0.6-1-0.8-1.5v8.6h-1.6v-7.7c-0.3,1-0.7,2-1.2,3l-1.5-1c0.6-0.9,1.2-2,1.6-3
		c0.3-0.6,0.6-1.6,1-2.9v-0.4h-2.1v-1.5L253.7,63.7z M267.1,60.1c0.2,0.1,0.2,0.2,0.2,0.2s-0.1,0.2-0.3,0.3l-1.5,2.6
		c0.3,0.3,0.6,0.5,0.9,0.7l1.1-1.9l1.1,0.7c0.1,0.1,0.2,0.2,0.2,0.3c0,0.1-0.1,0.2-0.3,0.2l-2,3.1c0.4-0.1,0.7-0.1,1.1-0.2
		c-0.1-0.3-0.2-0.5-0.3-0.8l1.2-0.3c0.4,1,0.7,2,0.9,3l-1.4,0.3c0-0.3-0.1-0.7-0.2-1.1c-0.7,0.2-1.7,0.5-2.9,0.8
		c-0.1,0.2-0.2,0.2-0.3,0.2c-0.1,0-0.2-0.1-0.2-0.2l-0.3-1.4c0.2,0,0.5,0,0.7-0.1l0.9-1.6c-0.7-0.6-1.4-1.1-2.1-1.6
		c0.1,2,0.3,3.9,0.7,5.9h1.6l-0.4-0.4l0.9-0.8c0.5,0.4,0.9,0.8,1.2,1.2h1.6v1.5h-4.6c0.2,0.7,0.4,1.4,0.7,2.1
		c0.4-0.5,0.8-1.1,1.2-1.7l1.3,0.7c0.1,0.1,0.2,0.2,0.2,0.3c0,0.1-0.1,0.2-0.4,0.2c-0.6,0.8-1.1,1.5-1.5,2c0.1,0.1,0.2,0.3,0.2,0.4
		c0.4,0.5,0.7,0.7,0.9,0.7s0.5-0.7,0.9-2l1.2,1c-0.8,1.9-1.5,2.9-2,2.9s-1.2-0.5-2.1-1.5c-0.1-0.1-0.2-0.3-0.3-0.4
		c-0.3,0.2-0.5,0.4-0.7,0.6c-0.7,0.5-1.5,0.9-2.3,1.3l-1-1.3c0.9-0.3,1.7-0.7,2.5-1.2c0.3-0.2,0.6-0.4,0.8-0.7
		c-0.5-1-0.9-2.1-1.2-3.3h-2.8c-0.1,0.5-0.1,0.9-0.2,1.3c0.9,0.7,1.7,1.4,2.5,2.2l-1.3,0.8c-0.5-0.6-1-1.1-1.6-1.6v0
		c-0.2,0.7-0.5,1.4-0.9,2.1c-0.3,0.5-0.7,0.9-1.1,1.4l-1.5-0.9c0.3-0.3,0.7-0.7,1-1c0.4-0.6,0.8-1.3,1.1-2c0.2-0.7,0.4-1.4,0.5-2.2
		h-1.6v-1.5h5.5c-0.5-3.3-0.7-6.6-0.6-10l1.4,0.2c0.2,0,0.3,0.1,0.3,0.2c0,0.2-0.1,0.3-0.2,0.4c0,0.9,0,1.8,0.1,2.7l0.6-0.7
		c0.1,0.1,0.2,0.2,0.3,0.2l1.6-2.9L267.1,60.1z M260.7,60.1c0.2,0.1,0.3,0.2,0.3,0.2s-0.1,0.2-0.3,0.3l-1.7,2.6
		c0.3,0.2,0.5,0.4,0.7,0.6l1.1-1.7l1.1,0.7c0.1,0.1,0.2,0.2,0.2,0.3c0,0.1-0.1,0.2-0.3,0.2l-2.4,3.3c0.4,0,0.8-0.1,1.3-0.2
		c-0.1-0.3-0.1-0.6-0.2-0.9l1.2-0.3c0.3,1,0.5,2.1,0.7,3.1l-1.3,0.3c0-0.3-0.1-0.7-0.1-1.1c-0.8,0.2-1.9,0.3-3.2,0.6
		c-0.1,0.2-0.2,0.2-0.3,0.2s-0.2-0.1-0.2-0.2l-0.3-1.4c0.3,0,0.6,0,0.9-0.1l1.2-1.9c-0.7-0.6-1.4-1.1-2.2-1.6l0.8-1
		c0.1,0.1,0.2,0.2,0.3,0.2l1.7-2.9L260.7,60.1z"/>
	<path class="st0" d="M273.4,63.1v-3.8l1.5,0.1c0.3,0,0.4,0.1,0.4,0.2s-0.1,0.3-0.3,0.5v3h1.9v1.5H275c0.5,1.6,1.3,3.1,2.3,4.4
		l-1.1,1.2c-0.5-0.8-0.9-1.6-1.2-2.5v9.5h-1.6v-9.2c-0.1,0.3-0.1,0.5-0.2,0.7c-0.3,1.2-0.6,2.4-1,3.5l-1.6-1.1c0.6-1,1-2,1.4-3.1
		c0.3-0.8,0.6-1.9,1-3.5h-2.1v-1.5L273.4,63.1z M279.9,60.9v-1.6l1.5,0.1c0.3,0,0.4,0.1,0.4,0.2s-0.1,0.3-0.3,0.5v0.8h2.5v-1.6
		l1.5,0.1c0.3,0,0.4,0.1,0.4,0.2s-0.1,0.3-0.3,0.5v0.8h2.4v1.4h-2.4v1.1h1.9v1.3h-1.9v1h3v1.4h-4.9V68h3.8V73h1.4v1.4h-1.4v1.3
		c0,0.7-0.4,1.2-1.3,1.5c-0.7,0.2-1.4,0.3-2.1,0.3l-0.6-1.6h1.7c0.5,0,0.7-0.2,0.7-0.6v-0.8h-6.1v2.8h-1.6v-2.8h-1.9v-1.4h1.9V68
		h3.8v-0.9h-5.2v-1.4h3v-1.1h-1.8v-1.2h1.8v-1.1h-2.5V61L279.9,60.9z M282.1,70.6v-1.2h-2.2v1.2H282.1z M282.1,72.9v-1.1h-2.2v1.1
		H282.1z M284,62.3h-2.5v1.1h2.5V62.3z M284,64.7h-2.5v1.1h2.5V64.7z M283.7,70.6h2.2v-1.2h-2.2V70.6z M283.7,72.9h2.2v-1.1h-2.2
		V72.9z"/>
	<path class="st1" d="M21,45.2c0,0-1.7-5,1.7-9.3s11.6-5.6,16.8,0.4c1.8,2.6,2.3,5.9,1.3,8.9L51,42.1l-9-2.8l6.4-6.8l-9.3,1.9
		l1.9-8.8l-7.1,6.1L31,23.1l-3,8.5l-7.1-6l2,8.9l-9.3-2l6.3,6.8l-9,2.9L21,45.2z"/>
	<polygon class="st2" points="21.2,47.1 29.2,57.3 24.3,63.7 8.1,63.7 	"/>
	<polygon class="st3" points="40.5,47.1 27.7,63.6 42.3,63.6 48,56.4 	"/>
	<polygon class="st4" points="58.6,47.1 45.5,63.7 71.6,63.6 	"/>
	<path class="st5" d="M79.1,45.6c0.8-0.3,1.6-0.6,2.4-0.8c0.4,0,0.8-0.2,1.2-0.5c0.4-0.3,0.6-0.2,0.6-1c0-0.7,0.2-0.7,0.2-1.4
		c0-0.7,0-0.5-1-1.9l-0.2-1.2l0.6-0.9c0,0,0.6-2.1,0.7-2.7c0.1-0.6,0.7-2,0.9-3c0.2-1,0.4-3.2,0.6-4.8c0.2-1.6,0.5-1.3,0.7-2.6
		c0.2-0.7,0.1-1.5-0.2-2.1c-0.2-0.6-0.1-0.9-0.4-2.2c-0.3-1.3,0-0.5-0.2-2c-0.2-1.5,0.2-0.9-0.9-1.5c-1.1-0.6-0.6,0-1.7-0.7
		c-0.7-0.4-1.6-0.5-2.4-0.3c-0.7,0.1-1.3,0.2-1.9,0.3c-0.4,0.2-2.1,0.6-2.7,0.7l-0.2,0l-1.4,0.7l-1,0.8l-1,0.6l-0.5,0.3
		c-0.3,0.3-0.5,0.7-0.5,1.1l0.7,0.7h1.6c0.4,0,0.9,0,2.2-0.1h0c0.8,0,1.6-0.2,2.3-0.7c1-0.5,0,0,1-0.2c1-0.2,0.3,0.1,1.1,0.7
		c0.8,0.6,0.1,0.9,0.1,1.3v2.9c0,0.3,0.1,0.6,0.2,0.9V27c0,0,0,0.4-1.2,0.4h-1.1c-0.8,0-1-0.2-1-0.2s-1-0.1-1.5-0.2
		c-0.1,0-0.2,0-0.2,0c-0.5,0-0.9,0-1.4,0l-2.2,0.5c-0.3-0.4-0.6-1-0.7-1.5c-0.1-0.5-0.4-0.8-0.8-1c-0.5-0.3-1-0.5-1.5-0.6
		c-0.6,0.1-1,0.4-1.4,0.9c-0.4,0.5-0.6,0.4-1.3,0.9c-0.4,0.4-0.5,1-0.4,1.5L65.1,29L65,31l-0.2,2l0.1,2.9c0,0,0.1,2.4,0,3.1
		c-0.1,0.8,0.1,1.1,0.1,2.1c0,1.1,0.6,1,0.7,1.4c0.1,0.4,1,0.6,1,0.6l1.2,1c0,0,0.1,0.7,0.1,1.2c0,0.5,0.1,1.1,0.2,1.6
		c0.1,0.4,0.2,0.9,0.2,1.3c0,0.5,0.8,0.6,0.8,0.6l1.2,1.2l1.3,0.4c0,0,1.2-0.2,1.6-0.2c0.4-0.1-0.2,0,0.5-0.8
		c0.6-0.8,0.1-1.7-0.3-1.7c-0.4,0-0.2-0.5-0.2-0.9c0.1-0.3,0.2-0.7,0.5-0.9l0.6,0.8c0,0,0.3,0,0.7-0.1c0.2,0,0.5,0,0.9-0.1
		c0.5,0,1-0.1,1.4-0.4C78,45.8,78.5,45.9,79.1,45.6z M76.3,38c-0.2,0.5,0,0.6-0.6,1c-0.1,0.1-0.3,0.2-0.5,0.3c0,0.1-0.1,0.1-0.2,0.2
		c-0.5,0.3-1.9,0.3-1.9,0.3l-0.9,0.6l-0.5-0.9l0.2-1.1l-0.2-1.6l-0.1-1.2l-0.1-2.7l1.9,0.3l1,0.2l0.8-0.2l0.1,0l1.2,0l1-0.8h1
		l0.5,1.2l-0.3,0.9l-0.3,1.8l-0.1,0.9H77C76.7,37.4,76.4,37.7,76.3,38z"/>
	<path class="st5" d="M124.8,21.7c-0.3-0.3-0.6-0.6-1.1-0.7c0,0-0.3-0.2-1.9-0.2s-0.2,0.1-0.7,0.5c-0.3,0.2-0.6,0.4-0.8,0.6
		c-0.3,0.3-0.6,0.5-0.9,0.7c-0.6,0.4-0.2,0.4-0.8,0.9c-0.6,0.5-0.4,0.6-1,1.1c-0.6,0.5-0.6,0.6-1,0.9s-1.3,1.2-1.3,1.2
		c-0.3,0.6-0.7,1.1-1.2,1.6c-0.3,0.3-0.6,0.7-0.7,1.2c-0.6,0.4-1.1,0.9-1.5,1.5c-0.2,0.3-0.5,0.6-0.9,0.9c-0.4,0.1-0.8,0.1-1.3,0.1
		h-0.5l-0.2-0.9v-1.2c0.2-0.2,0.5-0.3,0.7-0.5c0.1-0.1,0.3-0.3,0.4-0.4c0.9-0.7,0.6-0.2,1-0.4c0.4-0.2,0.4-0.3,1.5-1.2l0.5-0.8
		c0.1-0.5,0.2-0.9,0.2-1.4c0-0.4-0.1-0.5-0.1-1.2c0-0.3-0.1-0.7-0.2-1l-1.2-0.4h-1.2c-0.3,0-0.6-0.1-0.9-0.2c-0.1,0-0.1-0.1-0.2-0.1
		c0,0,0,0,0.2-0.8c0-0.2,0.1-0.3,0.2-0.6l1.5-0.2h1c0.5,0,0.9-0.2,1.3-0.4c0.7-0.5,0.3-0.5,0.7-1.1c0.4-0.7,0-0.4,0-0.8V17
		c0-0.9-0.2-0.5-0.6-0.7c-0.5-0.2-1-0.5-1.5-0.9c-0.8-0.7-0.1-0.3-0.2-0.9c-0.1-0.3-0.1-0.6,0-0.9c0,0,0.1-0.2,0.6-1.7
		s0.2-0.6,0.6-1.1c0.3-0.5,0.2-0.8,0.2-1.7c0-0.8,0.1-0.9,0.1-1.3s1.4,0.2,1.4,0.2l1.3,0.2c0.3,0.1,0.7,0.2,1.1,0.2
		c0.7,0.1,0.6,0.5,1,0.9c0.2,0.2,0.5,0.5,0.7,0.7c0.1,0.3,0.1,0.5,0.1,0.8c-0.2,0.4-0.4,0.7-0.7,1l-0.9,0.9l-1.2,0.4
		c-0.6,0.3-1.1,0.8-1.5,1.3l0.7,0.9l0.8,1l1,0.8l1.3,0.1c0.6-0.3,1.1-0.7,1.5-1.1l1-0.7l0.9-0.6c0.4-0.2,0.8-0.3,1.2-0.6
		c0.5-0.3,0.2-0.2,0.7-1.1c0.6-0.8,0.1-0.7,0.1-1.2c0-0.5-0.1-0.7-0.1-1.1c-0.1-0.4-0.2-0.7-0.4-1.1L121.7,7l-1.4-0.5l-1.6-1.2
		c-0.6-0.3-1.3-0.6-1.9-0.9c-0.7-0.4-0.9-0.1-0.9-0.1l-1.8-0.7l-2.3-0.1l-1.6-0.1l-0.3,0.2l-0.7,0.5c0,0-0.3,0.2-1.6,0.3
		c-0.5,0-1,0-1.5,0.1c-0.5,0-0.9,0.1-1.4,0.2c-0.7,0.2-1.1,0.2-1.1,0.2c-0.4,0.2-0.9,0.3-1.3,0.4c-0.7,0.2-1.9,0.5-1.9,0.5l-0.2,0.1
		l-1.7,0.7l-1,0.3c0,0-0.1-0.6-1.4-1.6c-1.4-1-0.1-0.1-1.6-0.9s-1.1,0-1.1,0s-0.2,0.1-0.7,0.8l-0.6,0.4c-0.6,0.4-0.8,3.5-0.8,3.5
		l0.1,3.5l0.2,1.7l0.1,1.3l0.2,0.8l1.2,1.6l0.3,1.6c0.5,0.6,1,1.3,1.3,2.1l2,0.8c0,0,1,0.1,2.1,0.1c0.4,0,0.8,0,1.2-0.1h1.5
		c0.8,0,0.9,0.1,0.9,0.1l1.2,0.5c0,0-0.4,1.2-0.7,2c-0.3,0.8-0.9,0.5-1.4,0.9s-1.1,0.8-1.1,0.8l-0.2,0.2l-1.2,0.7
		c-0.7,0.4-0.4,0.1-1.5,0.4s-0.6,0.1-1,0.1c-0.4,0-0.8,0-1.2,0.1c-0.9,0.1-0.7,1.1-0.7,1.1l1.1,1.1l0.5,1l0.7,0.5l0.9,0.7
		c0.6,0.1,1.1,0.2,1.7,0.2l0.6,0.2l1,0.4c0,0.4-0.1,0.8-0.2,1.2c-0.2,0.8-0.1,0.2-0.5,0.7c-0.1,0.1-0.2,0.3-0.3,0.4
		c-0.1,0.1-0.3,0.1-0.4,0.1l-1.9,0.4c0,0-0.4,0.2-1.9,0.6c-1.4,0.4-1.5,0.4-1.5,0.4c-0.5,0.1-1.1,0.2-1.7,0.2h-1.9
		c-1.1,0-1-0.1-1.5-0.1c-0.4,0-0.7-0.1-1.1-0.2c-0.5,0.3-0.9,0.8-1,1.4l0.4,1.1l0.7,1.2l0.4,0.8l0.8,0.9l1.2,0.4l1.7,0.2h1.1
		l0.9,0.2l0.2,1.7l-0.6,3.3l-8.1,8.1c0,0-2.6,2-3,2.3c-0.4,0.3-1.2,0.9-1.2,0.9l-2.8,1.4l-1.1,0.7l-0.9,1.1l-0.2,1.1L76.8,66
		l0.7,1.1c0.6,0.3,1.2,0.6,1.9,0.7l1.4-0.4l1.3-0.3c0.5-0.3,1-0.7,1.5-1.1l1.2-0.6l0.9-0.8l0.7-1c0.5-0.4,0.9-0.8,1.3-1.3
		c0.5-0.6,0.9-1.2,1.3-1.9l0.8-0.7l1-1l1.3-1.2l1.5-1.6l1.3-1.2l0.8-0.1l0.6,0.7l0.2,1.1v3.6l0.4,1.6l1,1.2c0.3,0.6,0.5,1.3,0.7,2
		c0.1,0.4,0.6,0.7,0.6,0.7l1.4,0.1l0.2,0h3.9l2.1-0.2h3.1l0.2,0.1l0.8,0.4L111,67c0.1,0.4,0.1,0.7,0.1,1.1c0,0.5,0.6,1.1,0.6,1.1
		l1,0.9l1.3,0.3h1.2l0.9-0.4l0.8-0.7l0.8-0.6l0.7-0.5l0.4-0.9l0.6-1.1l0.7-1l0.6-1.3l1.2-2.8c0.2-0.4,0.4-0.8,0.4-1.2
		c0-0.6,0.1-1.5,0.1-1.5c0.1-0.4,0.2-0.8,0.2-1.2c0.1-0.7,0.2-0.9,0.2-1.3c0.1-0.4,0.6-1.4,0.7-2c0-0.3,0.1-0.7,0.1-1l0.1-1.5v-1.5
		c0-0.4,0.1-0.7,0.2-1.1l-0.6-2.6c-0.5-0.6-1-1.2-1.5-1.7c-0.5-0.4-1.1-0.9-1.5-1.4l-1-1.2l-2.7-0.8l-3.6-0.1c-1.1-0.2-1,0-2.6,0.2
		c-0.2,0-0.4,0-0.5,0.1c-0.9,0.1-0.5,0.2-0.9,0.2s-0.1,0-0.2-1.1c-0.2-1.1,0.3-0.2,0.8-0.7c0.1-0.1,0.2-0.2,0.3-0.3
		c0.2-0.1,0.3,0,0.7-0.2c0.6-0.3,1.2-0.7,1.8-1.1c0.5-0.3,1-0.5,1.5-0.6l1.5-0.6h1.2l1.6,0.1h1.6l1.3,0.1l0.8,0.2l1.1-0.1l0.9-0.1
		l0.4-1.2c0,0-0.3-1.5-0.9-3.3c-0.6-1.8-0.2,0-1.2-0.3c-1-0.3-0.3,0-1.1-0.4c-0.8-0.4-0.1-0.9-0.1-0.9v-1.1c0-0.7,0.2-0.3,0.4-0.8
		c0.2-0.3,0.4-0.6,0.7-0.9c0.5-0.5,1.1-1,1.8-1.4c0.4-0.3,0.8-0.8,1.1-1.2c0.4-0.6,0.4-0.2,0.6-2C125.7,21.7,125.3,22.3,124.8,21.7z
		 M103.5,16.1c-0.2,0.3-0.1,0.6-0.4,0.9c-0.2,0.3-0.5,0.6-0.8,0.7c-0.4,0.1,0-0.1-0.8,0.1c-0.4,0.1-0.8,0.2-1.2,0.3H100
		c-0.5,0-0.9-0.2-1.3-0.5c0.2-0.3,0.2-0.6,0-0.9c-0.2-0.1-0.3-0.3-0.5-0.4c0.2-0.2,0.3-0.5,0.4-0.8c-0.1-0.5-0.2-1-0.3-1.5l0.1-1.2
		l1.1-0.3c0,0,0-0.2,0.6-0.5c0.1,0,0.2-0.1,0.3-0.1c0.4-0.2,0.5-0.2,0.5-0.2l0.8,0l0.8,0.2c0.2,0.1,0.3,0.2,0.4,0.4
		c0.2,0.3,0.4,0.5,0.6,0.7c0.3,0.3,0.4-0.2,0.4,0.4c0,0.6,0.1,0.7,0,1.1c0,0.4,0,0.6,0,0.9C103.8,15.8,103.6,15.8,103.5,16.1
		L103.5,16.1z M100.4,42.7c-0.2,0.1-0.5,0.3-0.6,0.4c-0.2,0.2-0.4,0.3-0.6,0.4c-0.3,0.1-0.6,0.3-0.9,0.3c-0.2,0-0.4,0-0.6,0
		l-0.3-0.4l-0.2-1.1c0.2,0.2,0.5,0.2,0.8,0.1c0.4-0.3,0.7-0.5,1.2-0.9c0.5-0.3,0.6-0.6,1-0.7c0.1,0,0.1-0.1,0.2-0.1
		c0.3-0.1,0.6-0.2,0.7-0.3c0.2-0.2,0.5-0.4,0.7-0.5c0.2,0,0.1-0.2,0.3-0.1s0.6,0.2,0.6,0.2s0,0.1,0.3,0.4c0.4,0.3,0.6,0.3,0.1,0.6
		c-0.5,0.3-0.6,0.1-1,0.5c-0.5,0.4-0.7,0.5-0.9,0.7c-0.2,0.2-0.2,0.1-0.6,0.3C100.5,42.6,100.4,42.7,100.4,42.7L100.4,42.7z
		 M109.9,46.3L109.9,46.3c0.5-0.3,0.8-0.6,1.2-1c0.6-0.5,0.6-0.3,1-0.6c0.4-0.2,0.8-0.4,1.2-0.5h1.5l1.6,0.4l0.9,0.5l0.8,0.7
		l0.6,1.2l0,0.9c0.4,1.4,0.5,2.8,0.4,4.3c-0.3,2-0.8,4-1.5,6l-0.6,0.9c0,0-0.4,1.5-0.5,1.8c-0.1,0.2-0.4,1.6-0.4,1.6
		c-0.1,0.4-0.3,0.8-0.6,1.1c-0.2,0.1-0.2,0.1-0.9,0.1s-0.8,0.3-0.8,0.3l-0.9-0.3c0-0.3-0.1-0.7-0.2-1c0-0.2-0.1-0.4-0.1-0.7
		l-0.4-1.6c-0.4-0.3-0.8-0.4-1.3-0.4h-1.6c-1.3,0-1.2-0.2-2.6-0.2c-0.6,0-1.2,0-1.7-0.1c-0.6,0-1.1-0.1-1.6-0.2
		c-0.4-0.2-0.6-1-1.2-2c-0.5-1,0.8-0.2,1.5-0.5c0.5-0.2,1.1-0.2,1.7-0.2c0.5-0.1,1-0.2,1.5-0.4c0.5,0,0.9,0,1.4,0
		c0.3-0.1,0.7-0.2,1-0.3c0.2-0.1,0.4-0.2,0.6-0.3l0.2-0.1c0,0,1-1.6,1.3-1.9c0.2-0.2,0-0.7,0-0.7s0.3-0.9-0.1-1.1
		c-0.4-0.2-0.2-0.1-1.3-0.7l-0.5-0.3l-1.2-0.7l-0.9-0.2c-0.4,0.1-0.9,0.3-1.3,0.5c-0.5,0.3-0.6,0.2-1.5,0.3c-0.4,0-0.7,0.1-1.1,0.1
		c-0.3,0-0.6,0.1-0.9,0.1l-0.9-0.2l-0.8-0.4c0,0-0.2-0.6-0.3-1c-0.1-0.4,0-0.3,0-0.3l0-1c0.4,0,0.8-0.1,1.2-0.2
		c0.5-0.1,0.9-0.1,1.4,0c0.6-0.1,1.3-0.2,1.9-0.3c0.7-0.1,1.3-0.2,2-0.2c0.5-0.1,1-0.3,1.5-0.5C109.1,46.7,109.5,46.5,109.9,46.3
		L109.9,46.3z M108.9,12c-0.3,0.5-0.3,0.6-1.5,0.8c-1.1,0.2-0.1-0.1-0.2-0.4c-0.1-0.3-0.1-0.1-0.7-0.8s-0.2-0.2-0.8-0.7
		c-0.6-0.5-0.2-0.3-0.9-1.1c-0.6-0.8,0.1-0.8,0.1-0.8c0.2-0.4,0.4-0.8,0.6-1.2c0.2-0.2,0.5,0,0.8,0c0.3-0.1,0.7-0.2,1-0.4
		c0,0,0.3-0.1,1.4-0.7c1.1-0.5,0.8,0.3,0.8,0.3l0.5,0.2l0.4,0.2c0,0.3,0.1,0.5,0,0.8c0,0.3-0.1,0.9-0.1,0.9c0,0.3-0.1,0.6-0.1,1
		c0,0.1-0.1,0.2-0.2,0.3c-0.1,0.1-0.3,0.3-0.6,0.6C108.6,11.9,109.1,11.6,108.9,12z"/>
	<path class="st5" d="M140.9,35.7v1.3l0.5,0.7l2,0.9c0.3,0.5,0.5,1,0.6,1.5l0.2,1.3l0.3,1l0.7,1.3v1.5l0.1,11.1l-0.2,1.7l0.4,1.5
		l-1.7,0.7l-0.4,0.4l-3.5,3.1c0,0-6.6,4.9-7.8,5.3c-1.3,0.4-2.7,1-2.7,1l-1,0.3c0,0-0.7,0.3-0.6,0.7c0,0.4,0.1,0.8,0.2,1.2
		c0.2,0.9-0.2,1.2,0.5,1.5c0.7,0.4,0.1-0.1,1.3,0.4s0.8,0.3,2.1,0.8c1.3,0.5,0.9,0.2,1.7,0.6c0.3,0.2,0.7,0.4,1.2,0.4
		c0,0,0.6,0.3,1.7-0.3c1.1-0.6,2.7-1.7,2.7-1.7c0.5-0.3,1-0.6,1.5-1c0.4-0.4,0.9-0.8,1.3-1c0.6-0.3,1.4-0.8,2-1.2
		c0.6-0.4,0.2-1.4,1.2-0.5c0.9,1,1,1.2,1,1.2c0.1,0.4,0,0.7-0.2,1c-0.3,0.4,0.1,0.5-1,1c-1.1,0.4-1.5,0.3-1.9,0.7
		c-0.4,0.4-3.6,3.2-3.6,3.2s-0.6,0.4-1.4,1c-0.6,0.4-1.2,1-1.7,1.5l-1.4,1.6c-0.5,0.6-0.7,1-1.1,1.2c-0.5,0.3-0.9,0.6-1.3,1
		c-0.4,0.5-0.9,0.9-1.5,1.3c-0.6,0.5-0.9,0.9-1.6,1c-0.5,0-1,0-1.4,0.1c-0.7,0.1-1.5,0.2-2.2,0.3c-0.9,0.1-1.6,0.2-2.2,0.2
		c-0.6,0-1.5-0.1-1.5-0.1s-1.4,0.6-1.7,1.5c-0.3,1-0.4,2.1-0.2,3.2c0.2,1-0.2,0.8,1.1,1.6c1.2,0.8,1.3,0.3,2,0.9s0.2,0,1.6,0.3
		c1.4,0.3,0.9,0.6,1.8,0.3c1-0.3,1.4-0.1,2.3-0.6c0.9-0.5,1.6-0.6,2.2-1c0.6-0.3,0.2,0.1,1.5-1c0.6-0.7,1.3-1.3,2.1-1.8
		c0.5-0.5,1-0.8,1.7-1.1c1-0.5,1.6-0.4,2.2-1.2s0.5-0.6,1.3-1.5c0.8-0.9,1.2-1.1,2.5-2.3c1.3-1.2,2.2-3.9,3.9-4.5
		c1.1-0.2,2.1-0.7,2.9-1.5c0.8-0.6,1.7-1.4,1.7-1.4s1.2-0.5,1.4-0.1c0.2,0.4,0,0.6-0.1,2.1c-0.1,1.6-0.9,5.4-0.9,6.4
		c0,0.9-0.2,4.9,0.8,7.2s3.1,5.4,5.3,6.2s7.8,1.7,7.8,1.7h3.5l3.8-0.1c0,0,10.8,0.1,13.7-1.8c2.9-1.9,2.8-3.4,2.8-3.4l0-1.6
		l-0.1-1.4l-0.2-1.5l-0.1-1.1l-0.6-0.7l-1.2-1.2l-0.5-0.9l-1.5-0.6l-1,0.1l-1.2,0.9c0,0-0.4,0.5-0.9,1s-1.5,1.6-1.5,1.6l-0.8,1
		c0,0-0.2,1-0.8,1.2c-0.6,0.3-0.6,0-1.2,0.3c-0.6,0.3-0.6,0.2-1.3,0.4c-1,0.4-2,0.6-3,0.8c-1.1,0.2-2.1,0.3-3.2,0.3
		c0,0-0.7,0.1-2.1,0.1h-3.2c-0.9,0-1,0.4-2.4,0c-1.4-0.4-1.8-0.2-2.5-0.8c-0.7-0.6-0.9-0.7-1.3-1.3c-0.4-0.6-0.8-1.3-0.8-1.3
		s-0.6,0-0.2-0.9c0.4-0.7,0.7-1.4,0.9-2.2c0.3-0.9,0.5-1.9,0.6-2.8c0,0,0.1-0.9,0.2-1.4c0.1-0.6-0.2-4.7-0.2-5.5
		c0-0.8-1.3-2.7-1.3-2.7l-1.3-0.8l-1.1-0.7l-0.6-0.5c0,0-1.1-0.2-0.2-1c0.8-0.8,0.7-0.9,1.2-1.4s1.2-1.3,1.7-1.9
		c0.4-0.6,0.8-1.2,1.1-1.8c0.3-0.5,0.8-1.7,0.8-1.7c-0.4-1.8-2-3.1-3.9-3.1l0.2-0.8l1-0.7c0.7-0.8,1.3-1.6,1.3-1.6l3.2-2.8l1.5-1.3
		l1.7-2c0.2-0.5,0.5-0.9,0.9-1.2c0.6-0.6,0.7-0.9,1.2-1.3s0.9-0.4,1.3-1l-0.8-1.7c-0.4-0.7-0.9-1.3-1.3-2l-1.2-0.6
		c0,0-1.3-0.6-1.7-0.1c-0.5,0.5-0.5,0.1-0.9,1c-0.4,0.9-0.6,0.7-1,1.1c-0.3,0.4-0.4,0.2-0.8,1c-0.4,0.8-0.1,0.7-0.7,1.5
		c-0.6,0.8-0.5,0.7-1.4,1.8c-0.9,1-0.8,1-1.4,1.2c-0.6,0.2-0.3,0.4-1.2,0.2s-1.3,2-1.3-0.7c0.1-2.7,0.1-2.8,0.1-3.3
		c0-0.5,0-0.9,0-1.4c0.1-0.8,0.1-2.2,0.1-2.8c-0.3-1.3-0.6-2.6-1.1-3.8l-1.8-3.5l-1.3-1.5l-1-0.8l-1.6-0.7l-2.2-0.3h-2.4l-0.8,0.5
		c0,0-0.1-0.8-0.5,0.7L140.9,35.7"/>
	<path class="st5" d="M130.6,55.3l2.3,0.8l2.2-0.3l1.5-0.2l0.8-0.5l2.2-0.1l1.7-0.5l1,0.3l0.7,1.6c-0.2,0.5-0.5,1-0.8,1.5
		c-0.4,0.6-0.9,1.4-0.9,1.4c-0.1,0.3-0.3,0.5-0.5,0.8c-0.4,0.4-0.8,0.8-1.2,1.2l-1.8,1.1l-1.4,0.4l-4-1.2l-0.7-0.7l-0.9-0.7
		l-1.1-1.2l-0.6-2L130.6,55.3"/>
	<polygon class="st0" points="5.4,75.3 8.5,75.3 8.5,76.2 6.6,76.2 6.6,77.1 8.5,77.1 8.5,77.9 6.6,77.9 6.6,80.1 5.4,80.1 	"/>
	<path class="st0" d="M10.6,75c0.2,0,0.4,0.1,0.5,0.2c0.1,0.1,0.2,0.3,0.2,0.4c0,0.2-0.1,0.3-0.2,0.4c-0.1,0.1-0.3,0.2-0.5,0.2
		c-0.2,0-0.4-0.1-0.5-0.2c-0.1-0.1-0.2-0.3-0.2-0.4c0-0.2,0.1-0.3,0.2-0.4C10.2,75.1,10.4,75,10.6,75L10.6,75z M10,76.5h1.2v3.6H10
		L10,76.5z"/>
	<path class="st0" d="M12.7,76.5h1V77c0.1-0.2,0.3-0.3,0.4-0.4c0.2-0.1,0.4-0.1,0.6-0.1c0.2,0,0.3,0,0.5,0.1l-0.4,0.8
		c-0.1,0-0.2-0.1-0.3-0.1c-0.2,0-0.4,0.1-0.5,0.3c-0.2,0.3-0.2,0.7-0.2,1v1.7h-1.2L12.7,76.5z"/>
	<path class="st0" d="M19.7,77l-0.7,0.6c-0.2-0.2-0.5-0.3-0.8-0.3c-0.1,0-0.2,0-0.3,0.1c-0.1,0-0.1,0.1-0.1,0.2c0,0.1,0,0.1,0.1,0.1
		c0.1,0.1,0.2,0.1,0.4,0.2l0.4,0.2c0.3,0.1,0.7,0.3,0.9,0.5c0.2,0.2,0.3,0.4,0.2,0.6c0,0.3-0.2,0.6-0.5,0.8
		c-0.4,0.2-0.8,0.3-1.2,0.3c-0.6,0-1.2-0.2-1.6-0.7l0.7-0.6c0.1,0.1,0.3,0.2,0.5,0.3c0.2,0.1,0.3,0.1,0.5,0.1c0.1,0,0.3,0,0.4-0.1
		c0.1,0,0.1-0.1,0.1-0.2c0-0.1-0.2-0.3-0.5-0.4l-0.4-0.2c-0.8-0.3-1.2-0.7-1.2-1.1c0-0.3,0.2-0.6,0.4-0.7c0.3-0.2,0.7-0.3,1.1-0.3
		c0.3,0,0.6,0.1,0.9,0.2C19.2,76.7,19.5,76.8,19.7,77z"/>
	<polygon class="st0" points="21.5,75.2 22.7,75.2 22.7,76.5 23.4,76.5 23.4,77.3 22.7,77.3 22.7,80.1 21.5,80.1 21.5,77.3 
		20.9,77.3 20.9,76.5 21.5,76.5 	"/>
	<polygon class="st0" points="27,75.3 28.2,75.3 28.2,79.3 29.9,79.3 29.9,80.1 27,80.1 	"/>
	<path class="st0" d="M32,75c0.2,0,0.4,0.1,0.5,0.2c0.1,0.1,0.2,0.3,0.2,0.4c0,0.2-0.1,0.3-0.2,0.4c-0.1,0.1-0.3,0.2-0.5,0.2
		c-0.2,0-0.4-0.1-0.5-0.2c-0.1-0.1-0.2-0.3-0.2-0.4c0-0.2,0.1-0.3,0.2-0.4C31.6,75.1,31.8,75,32,75L32,75z M31.4,76.5h1.2v3.6h-1.2
		V76.5z"/>
	<path class="st0" d="M37.8,76.5H39v3.1c0,0.5-0.1,1-0.5,1.4c-0.6,0.4-1.2,0.6-1.9,0.6c-0.4,0-0.8,0-1.2-0.1
		c-0.3-0.1-0.6-0.2-0.8-0.4c-0.2-0.2-0.4-0.4-0.5-0.6h1.3c0.1,0.1,0.3,0.2,0.4,0.2c0.2,0.1,0.4,0.1,0.6,0.1c0.3,0,0.5,0,0.8-0.1
		c0.2-0.1,0.3-0.2,0.4-0.3c0.1-0.2,0.1-0.4,0.1-0.6c-0.2,0.2-0.4,0.3-0.6,0.3c-0.3,0.1-0.5,0.1-0.8,0.1c-0.6,0-1.1-0.2-1.6-0.5
		c-0.4-0.3-0.7-0.8-0.7-1.3c0-0.5,0.2-1.1,0.7-1.4c0.4-0.3,1-0.5,1.5-0.5c0.3,0,0.5,0,0.8,0.1c0.3,0.1,0.5,0.2,0.7,0.4L37.8,76.5
		L37.8,76.5z M36.6,77.3c-0.3,0-0.7,0.1-0.9,0.3c-0.2,0.2-0.4,0.4-0.4,0.7c0,0.3,0.1,0.6,0.4,0.7c0.3,0.2,0.6,0.3,0.9,0.3
		c0.3,0,0.6-0.1,0.9-0.3c0.2-0.2,0.4-0.4,0.4-0.7c0-0.3-0.1-0.6-0.4-0.7C37.3,77.4,36.9,77.3,36.6,77.3z"/>
	<path class="st0" d="M40.6,75.1h1.2v1.7c0.2-0.1,0.4-0.3,0.7-0.3c0.2-0.1,0.5-0.1,0.7-0.1c0.4,0,0.8,0.1,1.2,0.4
		c0.3,0.2,0.4,0.6,0.4,0.9v2.4h-1.2v-1.6c0-0.3,0-0.6-0.1-0.9c0-0.1-0.1-0.3-0.3-0.3c-0.1-0.1-0.3-0.1-0.5-0.1
		c-0.2,0-0.4,0.1-0.6,0.2c-0.2,0.1-0.3,0.3-0.4,0.5c0,0.2-0.1,0.5,0,0.7v1.5h-1.2L40.6,75.1z"/>
	<polygon class="st0" points="46.5,75.2 47.7,75.2 47.7,76.5 48.4,76.5 48.4,77.3 47.7,77.3 47.7,80.1 46.5,80.1 46.5,77.3 
		45.9,77.3 45.9,76.5 46.5,76.5 	"/>
	<polygon class="st0" points="50.5,79.2 51.4,79.6 50.3,81 49.7,80.7 	"/>
	<path class="st0" d="M58.3,75.9l-0.9,0.6c-0.2-0.3-0.6-0.5-1-0.5c-0.1,0-0.3,0-0.4,0.1c-0.1,0-0.1,0.1-0.2,0.2c0,0.1,0,0.2,0.1,0.2
		c0.3,0.2,0.6,0.4,0.9,0.6c0.5,0.3,0.7,0.5,0.8,0.6c0.2,0.1,0.4,0.3,0.5,0.5c0.1,0.2,0.2,0.4,0.2,0.6c0,0.4-0.2,0.8-0.5,1
		c-0.4,0.3-0.9,0.4-1.4,0.4c-0.4,0-0.8-0.1-1.2-0.3c-0.4-0.2-0.7-0.5-0.9-0.8l1-0.5c0.2,0.4,0.6,0.6,1,0.6c0.2,0,0.4,0,0.5-0.1
		c0.1-0.1,0.2-0.2,0.2-0.3c0-0.1-0.1-0.2-0.2-0.3c-0.2-0.2-0.4-0.4-0.7-0.5c-0.5-0.3-0.9-0.6-1.3-1c-0.2-0.2-0.3-0.4-0.3-0.7
		c0-0.4,0.2-0.7,0.5-0.9c0.4-0.3,0.8-0.4,1.2-0.4c0.3,0,0.6,0.1,0.9,0.2C57.7,75.5,58,75.7,58.3,75.9z"/>
	<path class="st0" d="M64.6,77.3l-1,0.4c-0.2-0.1-0.3-0.2-0.5-0.3c-0.2-0.1-0.4-0.1-0.6-0.1c-0.4,0-0.8,0.1-1.1,0.3
		c-0.3,0.2-0.4,0.5-0.4,0.8c0,0.3,0.1,0.6,0.4,0.8c0.3,0.2,0.7,0.3,1,0.3c0.4,0,0.9-0.1,1.2-0.4l0.9,0.5c-0.6,0.5-1.3,0.8-2.1,0.8
		c-0.7,0-1.4-0.2-1.9-0.6c-0.4-0.3-0.7-0.8-0.7-1.3c0-0.4,0.1-0.7,0.3-1c0.3-0.3,0.6-0.5,0.9-0.7c0.8-0.3,1.8-0.3,2.6,0
		C64,76.8,64.4,77,64.6,77.3z"/>
	<path class="st0" d="M68.4,76.4c0.4,0,0.9,0.1,1.3,0.2c0.4,0.2,0.7,0.4,0.9,0.7c0.2,0.3,0.3,0.6,0.3,0.9c0,0.3-0.1,0.7-0.3,1
		c-0.2,0.3-0.5,0.5-0.9,0.7c-0.4,0.2-0.8,0.3-1.3,0.3c-0.6,0-1.2-0.2-1.7-0.6c-0.7-0.5-0.9-1.5-0.4-2.3c0.1-0.2,0.3-0.4,0.5-0.5
		C67.2,76.6,67.8,76.4,68.4,76.4L68.4,76.4z M68.4,77.3c-0.3,0-0.6,0.1-0.9,0.3c-0.4,0.3-0.5,0.9-0.2,1.4c0,0.1,0.1,0.1,0.2,0.2
		c0.3,0.2,0.6,0.3,0.9,0.3c0.3,0,0.7-0.1,0.9-0.3c0.4-0.3,0.5-1,0.1-1.4c0-0.1-0.1-0.1-0.1-0.1C69.1,77.4,68.7,77.3,68.4,77.3
		L68.4,77.3z"/>
	<path class="st0" d="M72.2,76.5h1V77c0.1-0.2,0.3-0.3,0.4-0.4c0.3-0.2,0.7-0.2,1.1,0l-0.4,0.8c-0.1-0.1-0.2-0.1-0.3-0.1
		c-0.2,0-0.4,0.1-0.5,0.3c-0.2,0.3-0.2,0.7-0.2,1v0.2v1.5h-1.2V76.5z"/>
	<path class="st0" d="M81,78.6h-3.8c0,0.3,0.2,0.5,0.4,0.6c0.3,0.2,0.6,0.2,0.9,0.2c0.4,0,0.8-0.1,1.1-0.4l1,0.4
		c-0.2,0.3-0.5,0.5-0.9,0.6c-0.4,0.1-0.8,0.2-1.2,0.2c-0.6,0-1.3-0.2-1.8-0.5c-0.4-0.3-0.7-0.8-0.7-1.3c0-0.5,0.3-1,0.7-1.4
		c0.5-0.4,1.1-0.6,1.7-0.5c0.6,0,1.3,0.2,1.8,0.5c0.4,0.3,0.7,0.9,0.7,1.4L81,78.6L81,78.6z M79.9,77.9c-0.1-0.2-0.3-0.4-0.5-0.5
		c-0.2-0.1-0.5-0.2-0.8-0.2c-0.3,0-0.6,0.1-0.9,0.2c-0.2,0.1-0.3,0.3-0.4,0.5H79.9z"/>
	<polygon class="st0" points="84.6,75.3 85.9,75.3 85.9,77.1 88,77.1 88,75.3 89.2,75.3 89.2,80.1 88,80.1 88,78 85.9,78 85.9,80.1 
		84.6,80.1 	"/>
	<path class="st0" d="M91.3,75c0.2,0,0.4,0.1,0.5,0.2c0.1,0.1,0.2,0.3,0.2,0.4c0,0.2-0.1,0.3-0.2,0.4c-0.1,0.1-0.3,0.2-0.5,0.2
		c-0.2,0-0.4-0.1-0.5-0.2c-0.1-0.1-0.2-0.2-0.2-0.4c0-0.2,0.1-0.3,0.2-0.4C90.9,75.1,91.1,75,91.3,75L91.3,75z M90.7,76.5h1.2v3.6
		h-1.2V76.5z"/>
	<path class="st0" d="M97.1,76.5h1.2v3.1c0,0.5-0.1,1-0.5,1.4c-0.6,0.4-1.2,0.6-1.9,0.6c-0.4,0-0.8,0-1.2-0.1
		c-0.3-0.1-0.6-0.2-0.8-0.4c-0.2-0.2-0.4-0.4-0.5-0.6h1.3c0.1,0.1,0.3,0.2,0.4,0.2c0.2,0.1,0.4,0.1,0.6,0.1c0.3,0,0.5,0,0.8-0.1
		c0.2-0.1,0.3-0.2,0.4-0.3c0.1-0.2,0.1-0.4,0.1-0.6c-0.2,0.2-0.4,0.3-0.6,0.3c-0.2,0.1-0.5,0.1-0.8,0.1c-0.6,0-1.1-0.2-1.6-0.5
		c-0.4-0.3-0.7-0.8-0.7-1.3c0-0.5,0.2-1.1,0.7-1.4c0.4-0.3,1-0.5,1.5-0.5c0.3,0,0.5,0,0.8,0.1c0.3,0.1,0.5,0.2,0.7,0.4L97.1,76.5
		L97.1,76.5z M95.9,77.3c-0.3,0-0.6,0.1-0.9,0.3c-0.2,0.2-0.4,0.4-0.4,0.7c0,0.3,0.1,0.6,0.4,0.7c0.3,0.2,0.6,0.3,0.9,0.3
		c0.3,0,0.6-0.1,0.9-0.3c0.4-0.3,0.5-0.9,0.1-1.3c0-0.1-0.1-0.1-0.1-0.1C96.5,77.4,96.2,77.3,95.9,77.3z"/>
	<path class="st0" d="M99.9,75.1h1.2v1.7c0.2-0.1,0.4-0.3,0.7-0.3c0.2-0.1,0.5-0.1,0.7-0.1c0.4,0,0.8,0.1,1.2,0.4
		c0.3,0.2,0.4,0.6,0.4,0.9v2.4h-1.2v-1.6c0-0.3,0-0.6-0.1-0.9c0-0.1-0.1-0.3-0.3-0.3c-0.1-0.1-0.3-0.1-0.5-0.1
		c-0.2,0-0.4,0.1-0.6,0.2c-0.2,0.1-0.3,0.3-0.4,0.5c0,0.2-0.1,0.5-0.1,0.7v1.5h-1.2L99.9,75.1z"/>
	<path class="st0" d="M106.3,79.2c0.2,0,0.3,0.1,0.5,0.2c0.1,0.1,0.2,0.2,0.2,0.4c0,0.1-0.1,0.3-0.2,0.4c-0.3,0.2-0.7,0.2-0.9,0
		c-0.1-0.1-0.2-0.2-0.2-0.4c0-0.1,0.1-0.3,0.2-0.4C105.9,79.2,106.1,79.2,106.3,79.2z"/>
</g>
</svg>
