<svg xmlns="http://www.w3.org/2000/svg" viewBox="0 0 68.59 56.43"><defs><style>.cls-1{fill:#2e3192;}</style></defs><g id="圖層_2" data-name="圖層 2"><g id="圖層_2-2" data-name="圖層 2"><path class="cls-1" d="M35.62,18.45a5.13,5.13,0,1,0,3.32,5.68,6.11,6.11,0,0,0,.07-.86A5.18,5.18,0,0,0,35.62,18.45Zm-2.25,8.72Zm4.41-4.44h0s0,.08,0,.12,0,.27,0,.41,0,.24,0,.36,0,.08,0,.13,0,.1,0,.11a3.74,3.74,0,0,1-.16.66l-.09.23s0,.1,0,.1a1,1,0,0,1-.07.15,4.08,4.08,0,0,1-.34.57l-.06.09-.09.1a1.71,1.71,0,0,1-.18.2,2.61,2.61,0,0,1-.24.23l-.12.11-.12.1a5,5,0,0,1-.49.31l-.25.13-.12,0-.15.06a4.11,4.11,0,0,1-.6.17l-.17,0-.1,0-.32,0a4.1,4.1,0,0,1-.7,0h0l-.17,0c-.13,0-.26-.06-.39-.09L32.51,27l-.12,0s-.09,0-.1-.05a4.71,4.71,0,0,1-.58-.32l-.14-.09s-.06-.05-.08-.06l-.19-.16a4,4,0,0,1-.49-.52s0,0,0,0a.47.47,0,0,1-.06-.09,1.67,1.67,0,0,1-.18-.28c-.05-.08-.1-.16-.14-.24l-.08-.15a.84.84,0,0,0-.06-.14c-.07-.19-.13-.37-.18-.56s0-.23-.07-.34,0-.12,0-.11,0-.09,0-.13c0-.24,0-.48,0-.71a.49.49,0,0,0,0-.12v-.07c0-.13.05-.26.08-.39s.11-.38.18-.57a.63.63,0,0,0,0-.09l.07-.15a2.75,2.75,0,0,1,.17-.29A1.67,1.67,0,0,1,30.7,21l.06-.09,0-.05a3.71,3.71,0,0,1,.47-.5l.21-.18.08-.05.14-.1a4.71,4.71,0,0,1,.58-.32l.1,0,.12-.05.27-.08.33-.09.17,0h.1a3.87,3.87,0,0,1,.68,0l.29,0h.07l.23,0a6.36,6.36,0,0,1,.71.21h0l0,0,.15.07.35.18.27.19.09.06a.75.75,0,0,1,.14.12,3.45,3.45,0,0,1,.5.51l.09.1.09.13.18.28.18.34.06.13a.94.94,0,0,1,0,.09,3.58,3.58,0,0,1,.2.71Z"/><path class="cls-1" d="M34.56,22.05v-.9a.62.62,0,0,0-.6-.6.6.6,0,0,0-.6.6v2.07l-1.42.84a.6.6,0,0,0-.21.82.61.61,0,0,0,.82.21l1.64-1a.69.69,0,0,0,.37-.57v-1.5Z"/><path class="cls-1" d="M68,55.23H64.66V36.89c0-.86,0-1.74,0-2.61v0a.62.62,0,0,0-.6-.6H52V27.8a.62.62,0,0,0-.6-.6h-7.1V26c0-.4,0-.8,0-1.21v-6.2a1.14,1.14,0,0,0-.08-.58.94.94,0,0,0-.29-.27L42.5,16.69,37.8,13l-3.12-2.44V8.49A4,4,0,0,0,36,8.68a7.29,7.29,0,0,0,1.81-.3c.58-.16,1.14-.35,1.71-.51.28-.08.57-.15.85-.21l.2,0,.09,0h0c.15,0,.29,0,.44,0a3.7,3.7,0,0,1,.47,0h0l.09,0,.22,0,.25.07.11,0,.07,0a4.37,4.37,0,0,1,.48.25.6.6,0,0,0,.9-.52V1.66c0-.17,0-.34,0-.51A.68.68,0,0,0,43.43.6a3.91,3.91,0,0,0-.75-.35c-1.8-.68-3.61.19-5.34.64-.23.06-.47.12-.71.16l-.13,0-.15,0H36c-.13,0-.26,0-.39,0l-.12,0-.13,0L35,1,34.85.92l-.11,0h-.06V.79H33.54v9.77l-2.53,2-4.8,3.76-1.66,1.3c-.3.23-.58.38-.59.81C23.91,20,24,21.48,24,23v3c0,.4,0,.81,0,1.21H16.86a.62.62,0,0,0-.6.6v5.84H4.16a.62.62,0,0,0-.6.6V53.17c0,.69,0,1.38,0,2.06H3.32c-.88,0-1.75,0-2.63,0H.58a.6.6,0,0,0,0,1.2H68A.6.6,0,0,0,68,55.23Zm-27.37-54ZM36,2.3A7.45,7.45,0,0,0,37.83,2c.57-.16,1.13-.35,1.71-.51a8.11,8.11,0,0,1,.85-.21l.19,0,.1,0h0c.15,0,.29,0,.44,0h.61l.22.05.25.07.11,0,.07,0,.18.08V6.6a5.35,5.35,0,0,0-2.81,0c-.57.13-1.14.32-1.7.5-.29.08-.57.17-.86.24l-.41.09-.19,0-.11,0h0a5.78,5.78,0,0,1-.93,0h0l-.12,0-.25-.06-.22-.06-.11,0-.08,0,0,0V2.11A4.3,4.3,0,0,0,36,2.3ZM16.58,55.23H4.76V34.84h12.1a.61.61,0,0,0,.6-.6V28.4H24V54.07c0,.38,0,.77,0,1.16Zm13.46,0v-10h3.24v10Zm4.44,0v-10h3.24v10H34.48Zm4.44,0V44.64a.61.61,0,0,0-.6-.6H29.45a.6.6,0,0,0-.6.6V55.23H25.16V18.64l3-2.39,5.15-4,.44-.35h.64l2.48,1.94,5.14,4,1,.8V55.23Zm15.12,0H44.26V28.4h6.5v5.84a.61.61,0,0,0,.6.6h12.1V53.17c0,.69,0,1.38,0,2.06H54Z"/><path class="cls-1" d="M12.35,45.9H8a.6.6,0,0,0-.6.6V52a.6.6,0,0,0,.6.6h4.37A.6.6,0,0,0,13,52V46.5A.6.6,0,0,0,12.35,45.9ZM8.58,47.2v-.11h3.17v4.36H8.58Z"/><path class="cls-1" d="M12.35,37.43H8a.6.6,0,0,0-.6.59v5.55a.6.6,0,0,0,.6.6h4.37a.6.6,0,0,0,.6-.6V38A.6.6,0,0,0,12.35,37.43ZM8.58,38.72v-.1h3.17V43H8.58Z"/><path class="cls-1" d="M19.91,45.9H15.54a.61.61,0,0,0-.6.6V52a.6.6,0,0,0,.6.6h4.37a.6.6,0,0,0,.6-.6V46.5A.6.6,0,0,0,19.91,45.9Zm-3.77,1.3v-.11h3.17v4.36H16.14Z"/><path class="cls-1" d="M19.91,37.43H15.54a.61.61,0,0,0-.6.59v5.55a.6.6,0,0,0,.6.6h4.37a.6.6,0,0,0,.6-.6V38A.6.6,0,0,0,19.91,37.43Zm-3.77,1.29v-.1h3.17V43H16.14Z"/><path class="cls-1" d="M52.6,45.9H48.22a.6.6,0,0,0-.59.6V52a.6.6,0,0,0,.59.6H52.6a.61.61,0,0,0,.6-.6V46.5A.61.61,0,0,0,52.6,45.9Zm-3.78,1.3v-.11H52v4.36H48.82Z"/><path class="cls-1" d="M52.6,37.43H48.22a.6.6,0,0,0-.59.59v5.55a.6.6,0,0,0,.59.6H52.6a.61.61,0,0,0,.6-.6V38A.61.61,0,0,0,52.6,37.43Zm-3.78,1.29v-.1H52V43H48.82Z"/><path class="cls-1" d="M60.16,45.9H55.79a.6.6,0,0,0-.6.6V52a.6.6,0,0,0,.6.6h4.37a.6.6,0,0,0,.6-.6V46.5A.61.61,0,0,0,60.16,45.9Zm-3.78,1.3v-.11h3.18v4.36H56.38Z"/><path class="cls-1" d="M60.16,37.43H55.79a.6.6,0,0,0-.6.59v5.55a.6.6,0,0,0,.6.6h4.37a.6.6,0,0,0,.6-.6V38A.61.61,0,0,0,60.16,37.43Zm-3.78,1.29v-.1h3.18V43H56.38Z"/></g></g></svg>