<svg xmlns="http://www.w3.org/2000/svg" viewBox="0 0 49.44 45.62"><defs><style>.cls-1,.cls-2{fill:#f47851;}.cls-2{font-size:23.84px;font-family:TaipeiSansTCBeta-Bold, Taipei Sans TC Beta;font-weight:700;letter-spacing:0.06em;}</style></defs><g id="圖層_2" data-name="圖層 2"><g id="圖層_2-2" data-name="圖層 2"><path class="cls-1" d="M41.37,0H8.07A8.08,8.08,0,0,0,0,8.07v20.4c0,4.68,3.06,8.07,7.28,8.07h7.8l-2,7.84a1,1,0,0,0,.43,1.08.94.94,0,0,0,.53.16,1,1,0,0,0,.63-.23l10.58-8.85H41.37a8.08,8.08,0,0,0,8.07-8.07V8.07A8.08,8.08,0,0,0,41.37,0Zm6.09,28.47a6.09,6.09,0,0,1-6.09,6.09H24.87a1,1,0,0,0-.63.23l-8.49,7.1,1.57-6.09a1,1,0,0,0-.18-.85,1,1,0,0,0-.78-.39H7.28c-3.12,0-5.3-2.5-5.3-6.09V8.07A6.09,6.09,0,0,1,8.07,2h33.3a6.09,6.09,0,0,1,6.09,6.09Z"/><text class="cls-2" transform="translate(9.94 27.79)">!!!</text></g></g></svg>