<?xml version="1.0" encoding="utf-8"?>
<!-- Generator: Adobe Illustrator 25.2.0, SVG Export Plug-In . SVG Version: 6.00 Build 0)  -->
<svg version="1.1" id="圖層_1" xmlns="http://www.w3.org/2000/svg" xmlns:xlink="http://www.w3.org/1999/xlink" x="0px" y="0px"
	 viewBox="0 0 51.7 49.7" style="enable-background:new 0 0 51.7 49.7;" xml:space="preserve">
<style type="text/css">
	.st0{fill:#FFFFFF;stroke:#2E3192;stroke-width:2;stroke-miterlimit:10;}
</style>
<ellipse class="st0" cx="45.4" cy="20.9" rx="5.2" ry="6.6"/>
<path class="st0" d="M47,2.4c0-0.7-0.5-1.2-1.2-1.2c-0.3,0-0.6,0.1-0.8,0.3c-3.8,3.5-12.9,9.7-30.7,9.8L7.9,11c-0.2,0-0.5,0-0.7,0.2
	c-2,1.2-12.1,8.1-0.6,16.4c0.2,0.1,0.4,0.2,0.7,0.2l6.3,0.3h0.1c0.8,0,18-0.2,29.8,12.5c0.5,0.5,1.2,0.5,1.7,0.1
	c0.2-0.2,0.4-0.5,0.4-0.8L47,2.4z"/>
<path class="st0" d="M15.2,28.1l-7.4-0.3V11.3C7.9,11.2,8,11,8.1,11l7.1,0.2V28.1z"/>
<path class="st0" d="M14.9,28.1l4.2,18.2c0,0,0.4,2.5-2.5,2.3l-5.3-0.2C11.1,48.5,9,49,8.8,46l-1-18.2L14.9,28.1z"/>
</svg>
