<svg xmlns="http://www.w3.org/2000/svg" viewBox="0 0 57.43 49.7"><defs><style>.cls-1{fill:#2e3192;}</style></defs><g id="圖層_2" data-name="圖層 2"><g id="圖層_2-2" data-name="圖層 2"><path class="cls-1" d="M53.63,12.91a.92.92,0,0,0-1,1.55,22.4,22.4,0,0,1,2.8,2.12c0,3.9-.16,23.93-.21,30-8.49-5.3-19.51-4.91-26.59,1-8.08-7-18.55-7.2-26.81-.76V16.58c7.79-6.91,18.1-6.9,25.89,0v26a.92.92,0,1,0,1.84,0v-26a19.72,19.72,0,0,1,11.21-5.1.92.92,0,0,0-.18-1.83,21.52,21.52,0,0,0-12,5.29C20.05,7.56,8.75,7.74.3,15.5a.89.89,0,0,0-.3.67V48.78a.9.9,0,0,0,.55.84.8.8,0,0,0,.37.08.93.93,0,0,0,.62-.24C9.46,42.2,20.1,42.2,28,49.46a.92.92,0,0,0,1.24,0C36.07,43.22,47.39,43,55.6,49a.91.91,0,0,0,.95.08.94.94,0,0,0,.51-.81c0-.29.22-29.06.22-32.09a.89.89,0,0,0-.3-.67A23.85,23.85,0,0,0,53.63,12.91Z"/><path class="cls-1" d="M38,18l-.07.12s0,0,0,.06a.5.5,0,0,0,0,.13s0,0,0,0l-1,5.68a1.25,1.25,0,0,0,.46,1.2,1.27,1.27,0,0,0,.7.28h.08a1.34,1.34,0,0,0,.51-.11L43.9,23h0a.76.76,0,0,0,.19-.12h0a.54.54,0,0,0,.15-.15h0l3.4-4.54,1.12-1.5,2.55-3.44,3.58-4.87,1.48-2,.23-.3a2.55,2.55,0,0,0,.74-2.3,1.5,1.5,0,0,0-.11-.34,5.18,5.18,0,0,0-1.72-2.14A7.29,7.29,0,0,0,53.36.15a2.24,2.24,0,0,0-2.8.94c-.31.48-.67.94-1,1.43l-.59.76L38.07,18Zm1.39,2.15L41.76,22l-2.9,1.31ZM46,10.35l4.42-6c.18-.25.37-.49.56-.74.38-.49.77-1,1.13-1.54.17-.27.22-.35.74-.19a5.23,5.23,0,0,1,1.59.84,3.41,3.41,0,0,1,1.13,1.38.19.19,0,0,1,0,.07c0,.15-.07.31-.4.72l-.27.36-1.48,2q-1.78,2.44-3.58,4.87L47.31,15.6l-1.12,1.5-2.84,3.79-3.27-2.54,5.91-8Z"/></g></g></svg>